# xmcd
#
# Track frame offsets:
#	150
#	6207
#	21516
#	39902
#	59180
#	87286
#	103592
#	125650
#	143795
#	161282
#	185217
#	199634
#
# Disc length: 2933 seconds
#
# Revision: 1
# Processed by: cddbd v1.4PL0 Copyright (c) Steve Scherf et al.
# Submitted via: CDmax 1.8
#
DISCID=a70b730c
DTITLE=Kenna - New Sacred Cow
DYEAR=1900
DGENRE=Country
TTITLE0=Within Earshot
TTITLE1=Freetime
TTITLE2=Man Fading
TTITLE3=Sunday After You
TTITLE4=Vexed and Glrious/A Better Control
TTITLE5=Red Man
TTITLE6=Hell Bent
TTITLE7=New Sacred Cow
TTITLE8=I'm Gone
TTITLE9=War in Me
TTITLE10=Yeneh Ababa (Rose)
TTITLE11=Love-Hate Sensation
EXTD=
EXTT0=
EXTT1=
EXTT2=
EXTT3=
EXTT4=
EXTT5=
EXTT6=
EXTT7=
EXTT8=
EXTT9=
EXTT10=
EXTT11=
PLAYORDER=
